<?xml version="1.0" encoding="UTF-8"?>
<svg width="102px" height="102px" viewBox="0 0 102 102" version="1.1" xmlns="http://www.w3.org/2000/svg" xmlns:xlink="http://www.w3.org/1999/xlink">
    <!-- Generator: Sketch 50.2 (55047) - http://www.bohemiancoding.com/sketch -->
    <title>github</title>
    <desc>Created with Sketch.</desc>
    <defs></defs>
    <g id="Page-1" stroke="none" stroke-width="1" fill="none" fill-rule="evenodd">
        <g id="github" transform="translate(1.000000, 1.000000)">
            <path d="M50,15 C30.6713867,15 15,31.0675575 15,50.8847957 C15,66.7420907 25.0275,80.1901282 38.9364453,84.9341402 C40.6860352,85.2627104 41.3247852,84.1544169 41.3247852,83.2082357 C41.3247852,82.3540094 41.2927246,79.524297 41.2756348,76.5280567 C31.5429688,78.6963534 29.4857617,72.2965244 29.4857617,72.2965244 C27.892168,68.1526015 25.5999414,67.0487235 25.5999414,67.0487235 C22.4191113,64.8234456 25.84125,64.8672503 25.84125,64.8672503 C29.355332,65.1169019 31.2054102,68.5643655 31.2054102,68.5643655 C34.3286133,74.0487117 39.3999902,72.4629822 41.390957,71.5430839 C41.7091016,69.2301967 42.6148633,67.6444672 43.6126367,66.7508516 C35.8431836,65.8441298 27.67,62.7646255 27.67,49.0143007 C27.67,45.0937466 29.0350684,41.8960749 31.2695313,39.3838589 C30.9127637,38.4727215 29.7079297,34.8215837 31.6155664,29.8826583 C31.6155664,29.8826583 34.5507813,28.9189553 41.2413867,33.5622516 C44.0312695,32.7628337 47.0241797,32.3685916 49.9999316,32.3554151 C52.9735645,32.3685916 55.9685254,32.7671791 58.7627832,33.5665971 C65.4406738,28.9189553 68.380127,29.8870037 68.380127,29.8870037 C70.2941895,34.8303446 69.0893555,38.4770669 68.7304688,39.3838589 C70.9734766,41.8960749 72.3278809,45.0938167 72.3278809,49.0143007 C72.3278809,62.7996693 64.1418457,65.8352987 56.3446387,66.7245688 C57.6050488,67.8372078 58.720127,70.0186809 58.720127,73.3653587 C58.720127,78.1620064 58.6730957,82.0299248 58.6730957,83.2126512 C58.6730957,84.1675933 59.3096582,85.2845777 61.0827637,84.9341402 C74.9811133,80.1813672 85,66.7333298 85,50.8847957 C85,31.0675575 69.3286133,15 50,15 Z" id="Shape" fill="#FFFFFF" fill-rule="nonzero"></path>
            <g id="Oval" stroke="#FFFFFF">
                <circle cx="50" cy="50" r="50"></circle>
            </g>
        </g>
    </g>
</svg>