<?xml version="1.0" encoding="UTF-8"?>
<svg width="102px" height="102px" viewBox="0 0 102 102" version="1.1" xmlns="http://www.w3.org/2000/svg" xmlns:xlink="http://www.w3.org/1999/xlink">
    <!-- Generator: Sketch 50.2 (55047) - http://www.bohemiancoding.com/sketch -->
    <title>me</title>
    <desc>Created with Sketch.</desc>
    <defs></defs>
    <g id="Page-1" stroke="none" stroke-width="1" fill="none" fill-rule="evenodd">
        <g id="me" transform="translate(1.000000, 1.000000)">
            <circle id="Oval" stroke="#FFFFFF" cx="50" cy="50" r="50"></circle>
            <g id="face" transform="translate(16.000000, 17.000000)">
                <path d="M40.8851891,48.1403993 C38.7745339,49.817235 36.0689288,50.7504306 33.25,50.7504306 C30.4310712,50.7504306 27.7254661,49.817235 25.6148109,48.1403993 C25.0056956,47.6446392 24.1132709,47.7612886 23.6316449,48.4028605 C23.1500188,49.0444325 23.2633426,49.9484657 23.8866233,50.4442258 C26.4789046,52.5147534 29.8077904,53.6666667 33.25,53.6666667 C36.6922096,53.6666667 40.0210954,52.5147534 42.6133767,50.4442258 C43.2366574,49.9484657 43.3499812,49.0298513 42.8683551,48.4028605 C42.3867291,47.7612886 41.4943044,47.6446392 40.8851891,48.1403993 Z" id="Shape" fill="#FFFFFF" fill-rule="nonzero"></path>
                <ellipse id="Oval" fill="#FFFFFF" fill-rule="nonzero" cx="23.3333333" cy="35.5833333" rx="2.33333333" ry="2.91666667"></ellipse>
                <path d="M33.25,0 C14.8932292,0 0,15.1545139 0,33.8333333 C0,52.5121528 14.8932292,67.6666667 33.25,67.6666667 C51.6067708,67.6666667 66.5,52.5121528 66.5,33.8333333 C66.5,15.1545139 51.6067708,0 33.25,0 Z M33.0283333,59.9836806 C22.5684375,59.9836806 13.7433333,52.3006944 10.7369792,41.7277778 C7.4396875,41.4458333 4.84895833,38.4008333 4.84895833,34.6509722 C4.84895833,31.0702778 7.21802083,28.1239583 10.2936458,27.6164583 C16.0846875,23.471875 20.8366667,17.7625 21.6402083,13.3641667 C25.4085417,20.7370139 39.1103125,27.9688889 54.4191667,27.6023611 C54.69625,27.5600694 54.9594792,27.5036806 55.2365625,27.5036806 C58.769375,27.5036806 61.6371875,30.70375 61.6371875,34.6509722 C61.6510417,38.57 58.8109375,41.7559722 55.3058333,41.7841667 C52.285625,52.3288889 43.474375,59.9836806 33.0283333,59.9836806 Z" id="Shape" fill="#FFFFFF" fill-rule="nonzero"></path>
                <ellipse id="Oval" fill="#FFFFFF" fill-rule="nonzero" cx="43.1666667" cy="35.5833333" rx="2.33333333" ry="2.91666667"></ellipse>
                <polygon id="Shape" points="0 0 70 0 70 70 0 70"></polygon>
            </g>
        </g>
    </g>
</svg>