<?xml version="1.0" encoding="UTF-8"?>
<svg width="102px" height="102px" viewBox="0 0 102 102" version="1.1" xmlns="http://www.w3.org/2000/svg" xmlns:xlink="http://www.w3.org/1999/xlink">
    <!-- Generator: Sketch 50.2 (55047) - http://www.bohemiancoding.com/sketch -->
    <title>menu</title>
    <desc>Created with Sketch.</desc>
    <defs></defs>
    <g id="Page-1" stroke="none" stroke-width="1" fill="none" fill-rule="evenodd">
        <g id="menu" transform="translate(1.000000, 1.000000)">
            <g id="github" stroke="#FFFFFF">
                <circle id="Oval" cx="50" cy="50" r="50"></circle>
            </g>
            <g transform="translate(16.000000, 16.000000)">
                <path d="M34,68 C15.2223185,68 0,52.7776815 0,34 C0,15.2223185 15.2223185,0 34,0 C52.7776815,0 68,15.2223185 68,34 C68,52.7776815 52.7776815,68 34,68 Z M54.71875,15.40625 L28.15625,15.40625 C27.8375,15.40625 27.625,15.61875 27.625,15.9375 L27.625,22.3125 C27.625,22.63125 27.8375,22.84375 28.15625,22.84375 L54.71875,22.84375 C55.0375,22.84375 55.25,22.63125 55.25,22.3125 L55.25,15.9375 C55.25,15.61875 55.0375,15.40625 54.71875,15.40625 Z M54.71875,30.28125 L28.15625,30.28125 C27.8375,30.28125 27.625,30.49375 27.625,30.8125 L27.625,37.1875 C27.625,37.50625 27.8375,37.71875 28.15625,37.71875 L54.71875,37.71875 C55.0375,37.71875 55.25,37.50625 55.25,37.1875 L55.25,30.8125 C55.25,30.49375 55.0375,30.28125 54.71875,30.28125 Z M54.71875,45.15625 L28.15625,45.15625 C27.8375,45.15625 27.625,45.36875 27.625,45.6875 L27.625,52.0625 C27.625,52.38125 27.8375,52.59375 28.15625,52.59375 L54.71875,52.59375 C55.0375,52.59375 55.25,52.38125 55.25,52.0625 L55.25,45.6875 C55.25,45.36875 55.0375,45.15625 54.71875,45.15625 Z M19.65625,15.40625 L13.28125,15.40625 C12.9625,15.40625 12.75,15.61875 12.75,15.9375 L12.75,22.3125 C12.75,22.63125 12.9625,22.84375 13.28125,22.84375 L19.65625,22.84375 C19.975,22.84375 20.1875,22.63125 20.1875,22.3125 L20.1875,15.9375 C20.1875,15.61875 19.975,15.40625 19.65625,15.40625 Z M19.65625,30.28125 L13.28125,30.28125 C12.9625,30.28125 12.75,30.49375 12.75,30.8125 L12.75,37.1875 C12.75,37.50625 12.9625,37.71875 13.28125,37.71875 L19.65625,37.71875 C19.975,37.71875 20.1875,37.50625 20.1875,37.1875 L20.1875,30.8125 C20.1875,30.49375 19.975,30.28125 19.65625,30.28125 Z M19.65625,45.15625 L13.28125,45.15625 C12.9625,45.15625 12.75,45.36875 12.75,45.6875 L12.75,52.0625 C12.75,52.38125 12.9625,52.59375 13.28125,52.59375 L19.65625,52.59375 C19.975,52.59375 20.1875,52.38125 20.1875,52.0625 L20.1875,45.6875 C20.1875,45.36875 19.975,45.15625 19.65625,45.15625 Z" id="Combined-Shape" fill="#FFFFFF" fill-rule="nonzero"></path>
                <g id="Group" transform="translate(12.750000, 15.406250)"></g>
            </g>
        </g>
    </g>
</svg>